<svg xmlns="http://www.w3.org/2000/svg" xmlns:xlink="http://www.w3.org/1999/xlink">
  <symbol viewBox="0 0 49 26" id="logo-svg">
    <path
      d="M49 26H0L24.5 0L49 26ZM13.3075 13.1309L16.6442 16.6702L19.981 13.1309L16.6442 9.58115L13.3075 13.1309ZM16.6442 25.0052L19.981 21.466L16.6442 17.9162L13.3075 21.466L16.6442 25.0052ZM32.4083 25.0052L35.745 21.466L32.4083 17.9162L29.019 21.466L32.4083 25.0052ZM28.4673 5.40314C28.4473 5.43762 28.4207 5.46941 28.3885 5.49738C27.3507 6.6178 26.2997 7.73822 25.2357 8.84817C25.1437 8.94241 25.2357 9.00524 25.2357 9.08901L28.3097 12.356L28.4542 12.4921L31.7909 8.96335L28.4673 5.40314ZM8.78847 25.0052L8.91984 24.8691L11.9938 21.6126C12.0428 21.5717 12.0702 21.5173 12.0702 21.4607C12.0702 21.4042 12.0428 21.3498 11.9938 21.3089C11.0611 20.3456 10.1547 19.3613 9.23512 18.3874L8.78847 17.9162L5.45174 21.466L8.78847 25.0052ZM17.2354 8.95288L20.5721 12.4921L20.6772 12.3979L23.8169 9.06806C23.922 8.95288 23.8169 8.89005 23.8169 8.80628L20.7429 5.56021L20.6115 5.42408L17.2354 8.95288ZM17.2354 17.3298L20.5721 20.8691L20.7429 20.7016C21.7413 19.6545 22.7528 18.6073 23.7643 17.4869C23.7926 17.4663 23.8152 17.4412 23.8307 17.4133C23.8461 17.3853 23.8541 17.3551 23.8541 17.3246C23.8541 17.2941 23.8461 17.2639 23.8307 17.2359C23.8152 17.208 23.7926 17.1829 23.7643 17.1623C22.8185 16.1675 21.8727 15.1728 20.9399 14.1675L20.5721 13.7906L17.2354 17.3298ZM32.9995 17.3298L36.3362 20.8691L39.6729 17.3298L36.3362 13.7906L32.9995 17.3298ZM28.4673 13.7801V13.8534L25.3013 17.2147C25.1962 17.3089 25.2357 17.3717 25.3013 17.4555L28.244 20.5969C28.3228 20.6911 28.4147 20.7853 28.5198 20.8901L31.8566 17.3508L28.4673 13.7801ZM12.7295 20.8482C12.7453 20.8175 12.7675 20.7892 12.7952 20.7644L15.9611 17.4031C16.0531 17.2984 15.9611 17.2461 15.9611 17.1623L12.8477 13.8953C12.8069 13.8484 12.7583 13.8061 12.7032 13.7696L9.37962 17.2984L12.7295 20.8482ZM32.3558 16.6597L35.6925 13.1204L32.3558 9.59162L29.019 13.1309L32.3558 16.6597ZM24.4737 8.28272L27.8105 4.74346L24.5263 1.27749H24.4606L21.2552 4.71204C21.2354 4.73712 21.2249 4.76616 21.2249 4.79581C21.2249 4.82546 21.2354 4.8545 21.2552 4.87958L24.4737 8.28272ZM24.4737 16.6597L27.8105 13.1204L24.5 9.58115L21.1633 13.1309L24.4737 16.6597ZM24.4737 25.0366L27.8105 21.4974L24.4737 17.9476L21.1633 21.466L24.4737 25.0366ZM40.2378 25.0366L43.5745 21.4974L40.2509 17.9791H40.1853L36.9668 21.3613C36.8617 21.4764 36.9668 21.5288 36.9668 21.6021L39.5941 24.4398L40.2378 25.0366ZM1.89169 25.2356H7.88204L4.91314 22.0942L1.89169 25.2356ZM41.1705 25.2356H47.1083L44.1394 22.0942L41.1705 25.2356ZM23.5542 25.2356L20.5721 22.0942L17.5901 25.2356H23.5542ZM33.3147 25.2356H39.2525L36.2836 22.0942L33.3147 25.2356ZM31.3968 25.2356L28.4279 22.0942L25.459 25.2356H31.3968ZM15.6327 25.2356L12.6638 22.0942L9.69491 25.2356H15.6327Z"
    />
  </symbol>
  <symbol viewBox="0 0 48 48" id="facebook">
    <g filter="url(#filter0_d)">
      <rect x="0.5" y="0.5" width="47" height="47" rx="23.5" stroke="#666666"/>
    </g>
    <path
      d="M21.78 34L21.75 25.25H18V21.5H21.75V19C21.75 15.63 23.84 14 26.85 14C28.29 14 29.53 14.1 29.89 14.15V17.68H27.8C26.17 17.68 25.85 18.46 25.85 19.6V21.5H30.5L29.25 25.25H25.85V34H21.78Z"
    />
  </symbol>
  <symbol viewBox="0 0 48 48" id="instagram">
    <g filter="url(#filter0_d)">
      <rect x="0.5" y="0.5" width="47" height="47" rx="23.5" stroke="#666666"/>
    </g>
    <path
      d="M25.02 14C26.82 14 27.2 14.02 28.12 14.06C29.18 14.11 29.91 14.28 30.54 14.53C31.2 14.78 31.76 15.13 32.31 15.68C32.87 16.23 33.21 16.79 33.47 17.45C33.72 18.08 33.88 18.81 33.93 19.88C33.98 20.83 33.99 21.2 33.99 23.2V24.8C33.99 26.8 33.98 27.17 33.93 28.12C33.9143 28.9468 33.7588 29.7651 33.47 30.54C33.21 31.2 32.87 31.76 32.32 32.31C31.76 32.87 31.2 33.21 30.54 33.47C29.91 33.72 29.18 33.88 28.12 33.93C27.17 33.98 26.79 33.99 24.79 33.99H23.2C21.2 33.99 20.83 33.98 19.87 33.93C19.0432 33.9141 18.225 33.7586 17.45 33.47C16.7836 33.2195 16.1797 32.8271 15.68 32.32C15.1678 31.8186 14.7719 31.211 14.52 30.54C14.2317 29.765 14.0761 28.9468 14.06 28.12C14.011 27.0874 13.991 26.0537 14 25.02V22.97C14 21.17 14.02 20.79 14.06 19.87C14.11 18.81 14.28 18.08 14.52 17.45C14.78 16.79 15.12 16.23 15.68 15.68C16.1752 15.1674 16.7805 14.7742 17.45 14.53C18.2245 14.2382 19.0427 14.0793 19.87 14.06C20.79 14.02 21.17 14 22.97 14H25.02ZM25.04 15.8H22.95C21.22 15.8 20.85 15.82 19.95 15.86C18.98 15.9 18.45 16.06 18.1 16.2C17.63 16.38 17.3 16.6 16.95 16.95C16.6 17.3 16.38 17.63 16.2 18.1C16.07 18.45 15.9 18.98 15.86 19.96C15.82 20.86 15.8 21.22 15.8 22.96V25.04C15.8 26.78 15.82 27.14 15.86 28.04C15.9 29.01 16.06 29.54 16.2 29.89C16.38 30.36 16.6 30.69 16.95 31.04C17.3 31.39 17.63 31.61 18.1 31.79C18.45 31.93 18.98 32.09 19.96 32.13C20.93 32.18 21.28 32.19 23.44 32.19H24.55C26.72 32.19 27.06 32.18 28.04 32.13C29.01 32.09 29.54 31.93 29.89 31.79C30.36 31.61 30.69 31.39 31.04 31.04C31.39 30.69 31.61 30.36 31.79 29.89C31.93 29.54 32.09 29.01 32.13 28.04C32.18 27.06 32.19 26.72 32.19 24.55V23.45C32.19 21.28 32.18 20.93 32.13 19.95C32.09 18.98 31.93 18.45 31.79 18.1C31.6291 17.6654 31.3728 17.2725 31.04 16.95C30.7178 16.6169 30.3248 16.3606 29.89 16.2C29.2969 15.9832 28.6715 15.8682 28.04 15.86C27.0408 15.8123 26.0404 15.7923 25.04 15.8ZM24 18.86C25.3619 18.86 26.668 19.401 27.631 20.364C28.594 21.327 29.135 22.6331 29.135 23.995C29.135 25.3569 28.594 26.663 27.631 27.626C26.668 28.589 25.3619 29.13 24 29.13C22.6381 29.13 21.332 28.589 20.369 27.626C19.406 26.663 18.865 25.3569 18.865 23.995C18.865 22.6331 19.406 21.327 20.369 20.364C21.332 19.401 22.6381 18.86 24 18.86ZM24 20.66C23.1155 20.66 22.2673 21.0114 21.6418 21.6368C21.0164 22.2622 20.665 23.1105 20.665 23.995C20.665 24.8795 21.0164 25.7278 21.6418 26.3532C22.2673 26.9786 23.1155 27.33 24 27.33C24.8845 27.33 25.7328 26.9786 26.3582 26.3532C26.9837 25.7278 27.335 24.8795 27.335 23.995C27.335 23.1105 26.9837 22.2622 26.3582 21.6368C25.7328 21.0114 24.8845 20.66 24 20.66ZM29.33 17.46C29.6483 17.46 29.9535 17.5864 30.1786 17.8115C30.4036 18.0365 30.53 18.3417 30.53 18.66C30.53 18.9783 30.4036 19.2835 30.1786 19.5085C29.9535 19.7336 29.6483 19.86 29.33 19.86C29.0118 19.86 28.7065 19.7336 28.4815 19.5085C28.2565 19.2835 28.13 18.9783 28.13 18.66C28.13 18.3417 28.2565 18.0365 28.4815 17.8115C28.7065 17.5864 29.0118 17.46 29.33 17.46Z"
    />
  </symbol>
  <symbol viewBox="0 0 48 48" id="pinterest">
    <g filter="url(#filter0_d)">
      <rect x="0.5" y="0.5" width="47" height="47" rx="23.5" stroke="#666666"/>
    </g>
    <path
      d="M24 14C21.6755 14.0082 19.4264 14.826 17.6395 16.3128C15.8526 17.7995 14.6395 19.8623 14.2087 22.1466C13.7778 24.4309 14.1563 26.7939 15.2789 28.8293C16.4015 30.8648 18.1982 32.4456 20.36 33.3C20.26 32.51 20.19 31.3 20.39 30.43L21.56 25.46C21.56 25.46 21.26 24.86 21.26 23.98C21.26 22.59 22.07 21.56 23.08 21.56C23.93 21.56 24.35 22.2 24.35 22.96C24.35 23.82 23.8 25.1 23.51 26.29C23.27 27.29 24.01 28.1 25 28.1C26.78 28.1 28.14 26.23 28.14 23.53C28.14 21.13 26.42 19.47 23.96 19.47C23.3756 19.4443 22.792 19.5373 22.2446 19.7434C21.6971 19.9495 21.1971 20.2644 20.7746 20.669C20.3522 21.0737 20.0162 21.5598 19.7868 22.0979C19.5574 22.636 19.4394 23.215 19.44 23.8C19.44 24.66 19.77 25.58 20.18 26.08C20.26 26.18 20.27 26.27 20.24 26.37L19.96 27.5C19.92 27.68 19.81 27.73 19.63 27.64C18.37 27.05 17.59 25.24 17.59 23.76C17.59 20.61 19.89 17.72 24.21 17.72C27.67 17.72 30.38 20.18 30.38 23.49C30.38 26.94 28.2 29.71 25.18 29.71C24.18 29.71 23.22 29.18 22.9 28.56L22.27 30.93C21.9748 31.8577 21.5579 32.7421 21.03 33.56C22.4038 33.9816 23.8524 34.1021 25.277 33.9133C26.7016 33.7245 28.0687 33.2309 29.2854 32.4661C30.502 31.7014 31.5395 30.6833 32.3272 29.4814C33.115 28.2795 33.6344 26.9219 33.8501 25.5011C34.0658 24.0804 33.9728 22.6298 33.5774 21.2482C33.1819 19.8666 32.4934 18.5865 31.5586 17.4951C30.6238 16.4036 29.4648 15.5264 28.1604 14.9233C26.8561 14.3202 25.437 14.0053 24 14Z"
    />
  </symbol>
  <symbol viewBox="0 0 48 48" id="twitter">
    <g filter="url(#filter0_d)">
      <rect x="0.5" y="0.5" width="47" height="47" rx="23.5" stroke="#666666"/>
    </g>
    <path
      d="M34 17.88C33.25 18.25 32.5 18.38 31.62 18.5C32.5 18 33.12 17.25 33.37 16.25C32.5606 16.7313 31.6743 17.0696 30.75 17.25C29.9485 16.4623 28.8737 16.0145 27.75 16C25.62 16 23.75 17.88 23.75 20.13C23.75 20.5 23.75 20.75 23.88 21C22.2422 20.9382 20.6364 20.5271 19.1705 19.7941C17.7045 19.0611 16.4121 18.0232 15.38 16.75C15.0081 17.3956 14.8342 18.1363 14.88 18.88C14.8916 19.552 15.0683 20.2108 15.3943 20.7984C15.7204 21.3861 16.186 21.8846 16.75 22.25C16.12 22.25 15.5 22 14.87 21.75C14.87 23.75 16.25 25.38 18.12 25.75C17.75 25.88 17.37 25.88 17 25.88C16.75 25.88 16.5 25.88 16.25 25.75C16.75 27.38 18.25 28.63 20.13 28.63C18.6778 29.7963 16.8622 30.4156 15 30.38H14C15.875 31.5591 18.0355 32.2056 20.25 32.25C27.75 32.25 31.88 26 31.88 20.62V20.12C32.7387 19.5335 33.4617 18.7697 34 17.88Z"
    />
  </symbol>
  <symbol viewBox="0 0 48 48" id="youtube">
    <g filter="url(#filter0_d)">
      <rect x="0.5" y="0.5" width="47" height="47" rx="23.5" stroke="#666666"/>
    </g>
    <path
      d="M22.03 27.38V20.62L27.97 24L22.03 27.38ZM35.23 18.5C35.1026 18.0177 34.8508 17.5773 34.4998 17.2229C34.1488 16.8684 33.711 16.6122 33.23 16.48C31.46 16 24.35 16 24.35 16C24.35 16 17.25 16 15.48 16.48C14.999 16.6122 14.5612 16.8684 14.2102 17.2229C13.8592 17.5773 13.6074 18.0177 13.48 18.5C13 20.28 13 24 13 24C13 24 13 27.72 13.47 29.5C13.5983 29.9835 13.8516 30.4247 14.2044 30.7793C14.5572 31.1338 14.9972 31.3893 15.48 31.52C17.25 32 24.36 32 24.36 32C24.36 32 31.46 32 33.23 31.52C33.711 31.3878 34.1488 31.1316 34.4998 30.7771C34.8508 30.4227 35.1026 29.9823 35.23 29.5C35.71 27.72 35.71 24 35.71 24C35.71 24 35.71 20.28 35.24 18.5H35.23Z"
    />
  </symbol>
</svg>